<svg width="2020" height="512" viewBox="0 0 2020 512" fill="none" xmlns="http://www.w3.org/2000/svg">
<g clip-path="url(#clip0_53_2)">
<rect width="512" height="512" rx="256" fill="#10B981"/>
<path d="M255.781 383.125C236.719 383.125 220.938 379.427 208.438 372.031C195.938 364.531 186.615 354.115 180.469 340.781C174.323 327.448 171.25 311.927 171.25 294.219C171.25 280.573 172.708 266.823 175.625 252.969C178.542 239.115 183.073 225.938 189.219 213.438C195.365 200.833 203.229 189.635 212.812 179.844C222.396 169.948 233.802 162.188 247.031 156.562C260.26 150.833 275.469 147.969 292.656 147.969C307.865 147.969 321.51 149.792 333.594 153.438C345.677 156.979 357.083 161.979 367.812 168.438L344.688 216.094C335 210.365 326.094 206.094 317.969 203.281C309.844 200.365 301.406 198.906 292.656 198.906C285.26 198.906 278.438 200.573 272.188 203.906C266.042 207.24 260.521 211.875 255.625 217.812C250.833 223.75 246.719 230.625 243.281 238.438C239.948 246.146 237.396 254.531 235.625 263.594C233.958 272.552 233.125 281.719 233.125 291.094C233.125 304.948 236.042 315.365 241.875 322.344C247.812 329.219 256.198 332.656 267.031 332.656C276.302 332.656 285.365 331.51 294.219 329.219C303.073 326.927 313.177 323.385 324.531 318.594V369.062C313.385 374.062 302.083 377.656 290.625 379.844C279.271 382.031 267.656 383.125 255.781 383.125Z" fill="white"/>
<path d="M707.938 383.125C690.646 383.125 675.906 380 663.719 373.75C651.531 367.396 642.26 357.604 635.906 344.375C629.552 331.146 626.375 314.219 626.375 293.594C626.375 272.24 629.969 254.844 637.156 241.406C644.448 227.865 654.5 217.917 667.312 211.562C680.229 205.208 695.177 202.031 712.156 202.031C724.24 202.031 734.656 203.229 743.406 205.625C752.26 207.917 759.969 210.677 766.531 213.906L752.469 250.781C744.969 247.76 737.99 245.312 731.531 243.438C725.073 241.458 718.615 240.469 712.156 240.469C703.823 240.469 696.896 242.448 691.375 246.406C685.854 250.26 681.74 256.094 679.031 263.906C676.323 271.719 674.969 281.51 674.969 293.281C674.969 304.844 676.427 314.427 679.344 322.031C682.26 329.635 686.479 335.312 692 339.062C697.521 342.708 704.24 344.531 712.156 344.531C722.052 344.531 730.854 343.229 738.562 340.625C746.271 337.917 753.771 334.167 761.062 329.375V370.156C753.771 374.74 746.115 378.021 738.094 380C730.177 382.083 720.125 383.125 707.938 383.125ZM849.344 136.875V186.406C849.344 195.052 849.031 203.281 848.406 211.094C847.885 218.906 847.469 224.427 847.156 227.656H849.656C853.406 221.615 857.833 216.719 862.938 212.969C868.146 209.219 873.875 206.458 880.125 204.688C886.375 202.917 893.094 202.031 900.281 202.031C912.885 202.031 923.875 204.271 933.25 208.75C942.625 213.125 949.917 220.052 955.125 229.531C960.333 238.906 962.938 251.094 962.938 266.094V380H915.281V277.969C915.281 265.469 912.99 256.042 908.406 249.688C903.823 243.333 896.74 240.156 887.156 240.156C877.573 240.156 870.021 242.396 864.5 246.875C858.979 251.25 855.073 257.76 852.781 266.406C850.49 274.948 849.344 285.417 849.344 297.812V380H801.688V136.875H849.344ZM1083.56 201.719C1107 201.719 1124.97 206.823 1137.47 217.031C1149.97 227.24 1156.22 242.76 1156.22 263.594V380H1122.94L1113.72 356.25H1112.47C1107.47 362.5 1102.36 367.604 1097.16 371.562C1091.95 375.521 1085.96 378.438 1079.19 380.312C1072.42 382.188 1064.19 383.125 1054.5 383.125C1044.19 383.125 1034.92 381.146 1026.69 377.188C1018.56 373.229 1012.16 367.188 1007.47 359.062C1002.78 350.833 1000.44 340.417 1000.44 327.812C1000.44 309.271 1006.95 295.625 1019.97 286.875C1032.99 278.021 1052.52 273.125 1078.56 272.188L1108.88 271.25V263.594C1108.88 254.427 1106.48 247.708 1101.69 243.438C1096.9 239.167 1090.23 237.031 1081.69 237.031C1073.25 237.031 1064.97 238.229 1056.84 240.625C1048.72 243.021 1040.59 246.042 1032.47 249.688L1016.69 217.5C1025.96 212.604 1036.32 208.75 1047.78 205.938C1059.34 203.125 1071.27 201.719 1083.56 201.719ZM1108.88 299.062L1090.44 299.688C1075.02 300.104 1064.29 302.865 1058.25 307.969C1052.31 313.073 1049.34 319.792 1049.34 328.125C1049.34 335.417 1051.48 340.625 1055.75 343.75C1060.02 346.771 1065.59 348.281 1072.47 348.281C1082.68 348.281 1091.27 345.26 1098.25 339.219C1105.33 333.177 1108.88 324.583 1108.88 313.438V299.062ZM1364.19 292.344C1364.19 306.927 1362.21 319.844 1358.25 331.094C1354.4 342.344 1348.72 351.875 1341.22 359.688C1333.82 367.396 1324.86 373.229 1314.34 377.188C1303.93 381.146 1292.16 383.125 1279.03 383.125C1266.74 383.125 1255.44 381.146 1245.12 377.188C1234.92 373.229 1226.01 367.396 1218.41 359.688C1210.91 351.875 1205.07 342.344 1200.91 331.094C1196.84 319.844 1194.81 306.927 1194.81 292.344C1194.81 272.969 1198.25 256.562 1205.12 243.125C1212 229.688 1221.79 219.479 1234.5 212.5C1247.21 205.521 1262.36 202.031 1279.97 202.031C1296.32 202.031 1310.8 205.521 1323.41 212.5C1336.11 219.479 1346.06 229.688 1353.25 243.125C1360.54 256.562 1364.19 272.969 1364.19 292.344ZM1243.41 292.344C1243.41 303.802 1244.66 313.438 1247.16 321.25C1249.66 329.062 1253.56 334.948 1258.88 338.906C1264.19 342.865 1271.11 344.844 1279.66 344.844C1288.09 344.844 1294.92 342.865 1300.12 338.906C1305.44 334.948 1309.29 329.062 1311.69 321.25C1314.19 313.438 1315.44 303.802 1315.44 292.344C1315.44 280.781 1314.19 271.198 1311.69 263.594C1309.29 255.885 1305.44 250.104 1300.12 246.25C1294.81 242.396 1287.89 240.469 1279.34 240.469C1266.74 240.469 1257.57 244.792 1251.84 253.438C1246.22 262.083 1243.41 275.052 1243.41 292.344ZM1525.44 328.125C1525.44 340 1522.62 350.052 1517 358.281C1511.48 366.406 1503.2 372.604 1492.16 376.875C1481.11 381.042 1467.36 383.125 1450.91 383.125C1438.72 383.125 1428.25 382.344 1419.5 380.781C1410.85 379.219 1402.1 376.615 1393.25 372.969V333.594C1402.73 337.865 1412.89 341.406 1423.72 344.219C1434.66 346.927 1444.24 348.281 1452.47 348.281C1461.74 348.281 1468.35 346.927 1472.31 344.219C1476.38 341.406 1478.41 337.76 1478.41 333.281C1478.41 330.365 1477.57 327.76 1475.91 325.469C1474.34 323.073 1470.91 320.417 1465.59 317.5C1460.28 314.479 1451.95 310.573 1440.59 305.781C1429.66 301.198 1420.65 296.562 1413.56 291.875C1406.58 287.188 1401.38 281.667 1397.94 275.312C1394.6 268.854 1392.94 260.677 1392.94 250.781C1392.94 234.635 1399.19 222.5 1411.69 214.375C1424.29 206.146 1441.11 202.031 1462.16 202.031C1472.99 202.031 1483.3 203.125 1493.09 205.312C1502.99 207.5 1513.15 210.99 1523.56 215.781L1509.19 250.156C1500.54 246.406 1492.36 243.333 1484.66 240.938C1477.05 238.542 1469.29 237.344 1461.38 237.344C1454.4 237.344 1449.14 238.281 1445.59 240.156C1442.05 242.031 1440.28 244.896 1440.28 248.75C1440.28 251.562 1441.17 254.062 1442.94 256.25C1444.81 258.438 1448.35 260.885 1453.56 263.594C1458.88 266.198 1466.64 269.583 1476.84 273.75C1486.74 277.812 1495.33 282.083 1502.62 286.562C1509.92 290.938 1515.54 296.406 1519.5 302.969C1523.46 309.427 1525.44 317.812 1525.44 328.125ZM1633.56 383.125C1616.27 383.125 1601.53 380 1589.34 373.75C1577.16 367.396 1567.89 357.604 1561.53 344.375C1555.18 331.146 1552 314.219 1552 293.594C1552 272.24 1555.59 254.844 1562.78 241.406C1570.07 227.865 1580.12 217.917 1592.94 211.562C1605.85 205.208 1620.8 202.031 1637.78 202.031C1649.86 202.031 1660.28 203.229 1669.03 205.625C1677.89 207.917 1685.59 210.677 1692.16 213.906L1678.09 250.781C1670.59 247.76 1663.61 245.312 1657.16 243.438C1650.7 241.458 1644.24 240.469 1637.78 240.469C1629.45 240.469 1622.52 242.448 1617 246.406C1611.48 250.26 1607.36 256.094 1604.66 263.906C1601.95 271.719 1600.59 281.51 1600.59 293.281C1600.59 304.844 1602.05 314.427 1604.97 322.031C1607.89 329.635 1612.1 335.312 1617.62 339.062C1623.15 342.708 1629.86 344.531 1637.78 344.531C1647.68 344.531 1656.48 343.229 1664.19 340.625C1671.9 337.917 1679.4 334.167 1686.69 329.375V370.156C1679.4 374.74 1671.74 378.021 1663.72 380C1655.8 382.083 1645.75 383.125 1633.56 383.125ZM1849.19 328.125C1849.19 340 1846.38 350.052 1840.75 358.281C1835.23 366.406 1826.95 372.604 1815.91 376.875C1804.86 381.042 1791.11 383.125 1774.66 383.125C1762.47 383.125 1752 382.344 1743.25 380.781C1734.6 379.219 1725.85 376.615 1717 372.969V333.594C1726.48 337.865 1736.64 341.406 1747.47 344.219C1758.41 346.927 1767.99 348.281 1776.22 348.281C1785.49 348.281 1792.1 346.927 1796.06 344.219C1800.12 341.406 1802.16 337.76 1802.16 333.281C1802.16 330.365 1801.32 327.76 1799.66 325.469C1798.09 323.073 1794.66 320.417 1789.34 317.5C1784.03 314.479 1775.7 310.573 1764.34 305.781C1753.41 301.198 1744.4 296.562 1737.31 291.875C1730.33 287.188 1725.12 281.667 1721.69 275.312C1718.35 268.854 1716.69 260.677 1716.69 250.781C1716.69 234.635 1722.94 222.5 1735.44 214.375C1748.04 206.146 1764.86 202.031 1785.91 202.031C1796.74 202.031 1807.05 203.125 1816.84 205.312C1826.74 207.5 1836.9 210.99 1847.31 215.781L1832.94 250.156C1824.29 246.406 1816.11 243.333 1808.41 240.938C1800.8 238.542 1793.04 237.344 1785.12 237.344C1778.15 237.344 1772.89 238.281 1769.34 240.156C1765.8 242.031 1764.03 244.896 1764.03 248.75C1764.03 251.562 1764.92 254.062 1766.69 256.25C1768.56 258.438 1772.1 260.885 1777.31 263.594C1782.62 266.198 1790.39 269.583 1800.59 273.75C1810.49 277.812 1819.08 282.083 1826.38 286.562C1833.67 290.938 1839.29 296.406 1843.25 302.969C1847.21 309.427 1849.19 317.812 1849.19 328.125ZM2008.25 328.125C2008.25 340 2005.44 350.052 1999.81 358.281C1994.29 366.406 1986.01 372.604 1974.97 376.875C1963.93 381.042 1950.18 383.125 1933.72 383.125C1921.53 383.125 1911.06 382.344 1902.31 380.781C1893.67 379.219 1884.92 376.615 1876.06 372.969V333.594C1885.54 337.865 1895.7 341.406 1906.53 344.219C1917.47 346.927 1927.05 348.281 1935.28 348.281C1944.55 348.281 1951.17 346.927 1955.12 344.219C1959.19 341.406 1961.22 337.76 1961.22 333.281C1961.22 330.365 1960.39 327.76 1958.72 325.469C1957.16 323.073 1953.72 320.417 1948.41 317.5C1943.09 314.479 1934.76 310.573 1923.41 305.781C1912.47 301.198 1903.46 296.562 1896.38 291.875C1889.4 287.188 1884.19 281.667 1880.75 275.312C1877.42 268.854 1875.75 260.677 1875.75 250.781C1875.75 234.635 1882 222.5 1894.5 214.375C1907.1 206.146 1923.93 202.031 1944.97 202.031C1955.8 202.031 1966.11 203.125 1975.91 205.312C1985.8 207.5 1995.96 210.99 2006.38 215.781L1992 250.156C1983.35 246.406 1975.18 243.333 1967.47 240.938C1959.86 238.542 1952.1 237.344 1944.19 237.344C1937.21 237.344 1931.95 238.281 1928.41 240.156C1924.86 242.031 1923.09 244.896 1923.09 248.75C1923.09 251.562 1923.98 254.062 1925.75 256.25C1927.62 258.438 1931.17 260.885 1936.38 263.594C1941.69 266.198 1949.45 269.583 1959.66 273.75C1969.55 277.812 1978.15 282.083 1985.44 286.562C1992.73 290.938 1998.35 296.406 2002.31 302.969C2006.27 309.427 2008.25 317.812 2008.25 328.125Z" fill="#1F1F1F"/>
</g>
<defs>
<clipPath id="clip0_53_2">
<rect width="2020" height="512" fill="white"/>
</clipPath>
</defs>
</svg>
